<svg xmlns="http://www.w3.org/2000/svg" xmlns:xlink="http://www.w3.org/1999/xlink" width="243.8831787109375" height="263.980712890625" viewBox="0 0 243.8831787109375 263.980712890625" fill="none">
<g filter="url(#filter_0_7)">
<path   fill-rule="evenodd"  fill="url(#linear_fill_0_7_0)"  d="M15.0601 95.9106C17.9043 87.0231 30.9345 71.0078 41.9485 58.3958C42.0209 58.1131 42.2924 57.823 42.7031 57.5333C46.8894 52.7582 50.7379 48.5193 53.5602 45.4106C53.4101 38.6606 53.0601 22.9106 74.5601 2.41064C54.9101 16.0606 9.06014 47.9106 15.0601 95.9106ZM49.5602 229.911L23.0602 181.411C22.9102 172.411 22.5602 151.411 36.0602 131.911C36.0602 135.961 36.0602 145.411 41.5602 146.911C44.4102 138.211 51.0602 117.911 57.0602 116.411L57.0602 131.911C61.0607 126.424 69.1257 115.364 87.3389 107.755C90.1176 103.599 106.177 94.7172 113.06 90.9106C87.0602 94.9106 79.3602 84.4106 76.0602 79.9106C70.0602 66.9106 83.3602 42.4106 89.0602 31.9106C79.9102 34.7606 58.5602 41.4106 51.0602 54.4106C48.9314 55.0134 44.4939 56.27 42.7031 57.5333C42.4527 57.8189 42.2011 58.1064 41.9485 58.3958C30.9345 71.0078 17.9043 87.0231 15.0601 95.9106C6.66015 116.461 -12.9398 164.411 49.5602 229.911ZM130.56 84.9106L119.06 101.911C111.367 108.115 88.6081 128.809 88.6081 128.809L70.5602 163.911C59.0602 180.911 66.0602 203.661 69.0602 213.411C68.7977 221.698 80.5602 239.911 130.06 235.411C179.56 230.911 173.26 203.611 170.56 191.911C168.76 189.061 164.56 182.411 153.56 182.411L122.8 182.411C112.3 175.661 87.7998 159.911 108.8 123.411C114.86 119.235 129.76 109.491 139.06 74.9106L115.56 84.9106C100.56 86.4106 65.5602 89.9106 89.0602 47.9106C91.9102 42.0606 98.5602 28.4106 134.06 18.4106C115.76 20.2106 73.0602 24.4106 53.5602 45.4106C50.7379 48.5193 46.8894 52.7582 42.7031 57.5333C44.4939 56.27 48.9314 55.0134 51.0602 54.4106C58.5602 41.4106 79.9102 34.7606 89.0602 31.9106C83.3602 42.4106 70.0602 66.9106 76.0602 79.9106C79.3602 84.4106 87.0602 94.9106 113.06 90.9106C106.177 94.7172 90.1176 103.599 87.3389 107.755C93.0275 105.378 99.7062 103.339 107.56 101.911L130.56 84.9106ZM119.56 256.411C143.56 258.511 199.56 263.411 230.06 185.911C232.646 179.2 236.84 168.32 238.051 154.364C234.541 171.818 218.455 185.883 211.56 191.911C177.06 212.911 172.51 198.211 170.56 191.911C173.26 203.611 179.56 230.911 130.06 235.411C80.5602 239.911 68.7977 221.698 69.0602 213.411C66.0602 203.661 59.0602 180.911 70.5602 163.911L88.6081 128.809C88.6081 128.809 55.9608 167.417 59.5602 186.411C57.0602 195.411 56.0602 235.411 119.56 256.411ZM203.56 100.911C203.341 101.348 203.217 101.833 203.174 102.357L203.56 100.911ZM191.06 77.9106C191.184 77.3584 191.316 76.7724 191.458 76.1545C191.198 76.824 191.06 77.4133 191.06 77.9106ZM206.06 24.4106C206.045 24.4228 206.03 24.435 206.015 24.4472C206.03 24.435 206.045 24.4228 206.06 24.4106ZM215.06 108.411L209.56 103.911L215.06 121.911C211.228 117.531 202.732 107.822 203.174 102.357L201.56 108.411L199.56 100.911L198.06 117.411L195.56 95.9106C193.16 99.2106 187.56 106.911 188.56 117.411L188.56 129.411C185.11 123.561 177.06 109.911 174.06 92.4106C172.71 96.9106 169.56 107.411 167.56 115.411C165.46 110.161 160.56 97.9106 164.06 84.9106C160.602 89.4196 152.532 99.9404 151.796 121.426C153.577 129.761 157.87 139.006 167.56 146.911C174.76 154.711 191.56 172.911 170.56 191.911C172.51 198.211 177.06 212.911 211.56 191.911C218.455 185.883 234.541 171.818 238.051 154.364C238.828 145.412 238.377 135.195 235.489 124C233.217 115.194 229.438 105.785 223.56 95.9106C219.36 90.2106 209.56 76.9106 235.56 47.9106C227.76 54.9606 209.56 71.4106 206.06 89.4106C206.36 81.6106 207.06 63.4106 230.06 34.9106C219.192 44.9433 194.861 67.4022 191.458 76.1545C194.402 63.3464 201.694 36.8983 235.56 15.9106C226.71 21.0106 206.06 32.9106 185.06 51.9106C188.206 46.2188 195.539 32.9488 206.015 24.4472C191.74 36.0175 158.552 62.9518 151.06 101.911C150.693 106.247 150.085 113.417 151.796 121.426C152.532 99.9404 160.602 89.4196 164.06 84.9106C160.56 97.9106 165.46 110.161 167.56 115.411C169.56 107.411 172.71 96.9106 174.06 92.4106C177.06 109.911 185.11 123.561 188.56 129.411L188.56 117.411C187.56 106.911 193.16 99.2106 195.56 95.9106L198.06 117.411L199.56 100.911L201.56 108.411L203.174 102.357C202.732 107.822 211.228 117.531 215.06 121.911L209.56 103.911L215.06 108.411L215.06 103.911L215.06 108.411ZM41.5602 47.9106L48.5602 44.4106L47.0602 31.9106C43.7602 37.4606 36.0602 50.4106 41.5602 47.9106ZM66.0602 59.9106L72.0602 45.4106C66.0602 45.4106 59.7602 54.5106 57.0602 58.4106C57.0602 59.9106 63.3602 59.9106 66.0602 59.9106ZM64.5602 98.4106C68.0102 96.7606 76.0602 92.9106 76.0602 92.9106C76.0602 92.9106 65.5602 92.9106 61.0602 92.9106C61.6602 94.1106 63.0602 96.9106 64.5602 98.4106ZM41.9485 58.3958C42.2011 58.1064 42.4527 57.8189 42.7031 57.5333C42.2924 57.823 42.0209 58.1131 41.9485 58.3958Z">
</path>
<path    stroke="rgba(255, 255, 255, 1)" stroke-width="1"    d="M15.0601 95.9106C9.06014 47.9106 54.9101 16.0606 74.5601 2.41064C53.0601 22.9106 53.4101 38.6606 53.5602 45.4106M15.0601 95.9106C6.66015 116.461 -12.9398 164.411 49.5602 229.911L23.0602 181.411C22.9102 172.411 22.5602 151.411 36.0602 131.911C36.0602 135.961 36.0602 145.411 41.5602 146.911C44.4102 138.211 51.0602 117.911 57.0602 116.411L57.0602 131.911C61.0607 126.424 69.1257 115.364 87.3389 107.755M15.0601 95.9106C17.9043 87.0231 30.9345 71.0078 41.9485 58.3958M170.56 191.911C191.56 172.911 174.76 154.711 167.56 146.911C157.87 139.006 153.577 129.761 151.796 121.426M170.56 191.911C168.76 189.061 164.56 182.411 153.56 182.411L122.8 182.411C112.3 175.661 87.7998 159.911 108.8 123.411C114.86 119.235 129.76 109.491 139.06 74.9106L115.56 84.9106C100.56 86.4106 65.5602 89.9106 89.0602 47.9106C91.9102 42.0606 98.5602 28.4106 134.06 18.4106C115.76 20.2106 73.0602 24.4106 53.5602 45.4106M170.56 191.911C173.26 203.611 179.56 230.911 130.06 235.411C80.5602 239.911 68.7977 221.698 69.0602 213.411C66.0602 203.661 59.0602 180.911 70.5602 163.911L88.6081 128.809M170.56 191.911C172.51 198.211 177.06 212.911 211.56 191.911C218.455 185.883 234.541 171.818 238.051 154.364M53.5602 45.4106C50.569 48.7052 46.4253 53.2694 41.9485 58.3958M88.6081 128.809C88.6081 128.809 111.367 108.115 119.06 101.911L130.56 84.9106L107.56 101.911C99.7062 103.339 93.0275 105.378 87.3389 107.755M88.6081 128.809C88.6081 128.809 55.9608 167.417 59.5602 186.411C57.0602 195.411 56.0602 235.411 119.56 256.411C143.56 258.511 199.56 263.411 230.06 185.911C232.646 179.2 236.84 168.32 238.051 154.364M238.051 154.364C238.828 145.412 238.377 135.195 235.489 124M235.489 124C233.217 115.194 229.438 105.785 223.56 95.9106C219.36 90.2106 209.56 76.9106 235.56 47.9106C227.76 54.9606 209.56 71.4106 206.06 89.4106C206.36 81.6106 207.06 63.4106 230.06 34.9106C218.36 45.7106 191.06 70.9106 191.06 77.9106C193.76 65.9106 200.06 37.9106 235.56 15.9106C226.71 21.0106 206.06 32.9106 185.06 51.9106C188.21 46.2106 195.56 32.9106 206.06 24.4106C191.81 35.9606 158.56 62.9106 151.06 101.911C150.693 106.247 150.085 113.417 151.796 121.426M235.489 124L220.56 103.911M220.56 115.411L215.06 103.911L215.06 108.411L209.56 103.911L215.06 121.911C210.86 117.111 201.06 105.911 203.56 100.911L201.56 108.411L199.56 100.911L198.06 117.411L195.56 95.9106C193.16 99.2106 187.56 106.911 188.56 117.411L188.56 129.411C185.11 123.561 177.06 109.911 174.06 92.4106C172.71 96.9106 169.56 107.411 167.56 115.411C165.46 110.161 160.56 97.9106 164.06 84.9106C160.602 89.4196 152.532 99.9404 151.796 121.426M41.9485 58.3958C42.3368 56.8809 48.4432 55.1517 51.0602 54.4106C58.5602 41.4106 79.9102 34.7606 89.0602 31.9106C83.3602 42.4106 70.0602 66.9106 76.0602 79.9106C79.3602 84.4106 87.0602 94.9106 113.06 90.9106C106.177 94.7172 90.1176 103.599 87.3389 107.755M47.0602 31.9106C43.7602 37.4606 36.0602 50.4106 41.5602 47.9106L48.5602 44.4106L47.0602 31.9106ZM57.0602 58.4106C59.7602 54.5106 66.0602 45.4106 72.0602 45.4106L66.0602 59.9106C63.3602 59.9106 57.0602 59.9106 57.0602 58.4106ZM61.0602 92.9106C61.6602 94.1106 63.0602 96.9106 64.5602 98.4106C68.0102 96.7606 76.0602 92.9106 76.0602 92.9106C76.0602 92.9106 65.5602 92.9106 61.0602 92.9106Z">
</path>
</g>
<defs>
<linearGradient id="linear_fill_0_7_0" x1="-9.710693359375" y1="303.47698974609375" x2="312.4320068359375" y2="2.41064453125" gradientUnits="userSpaceOnUse">
<stop offset="0" stop-color="#0077FF"  />
<stop offset="1" stop-color="#FF8787" stop-opacity="0.01" />
</linearGradient>
<filter id="filter_0_7" x="0" y="0" width="243.8831787109375" height="263.980712890625" filterUnits="userSpaceOnUse" color-interpolation-filters="sRGB">
<feFlood flood-opacity="0" result="feFloodId_0_7"/>
<feColorMatrix in="SourceAlpha" type="matrix" values="0 0 0 0 0 0 0 0 0 0 0 0 0 0 0 0 0 0 127 0" result="hardAlpha_0_7"/>
<feOffset dx="0" dy="2"/>
<feGaussianBlur stdDeviation="2"/>
<feComposite in2="hardAlpha_0_7" operator="out"/>
<feColorMatrix type="matrix" values="0 0 0 0 0 0 0 0 0 0 0 0 0 0 0 0 0 0 0.25 0"/>
<feBlend mode="normal" in2="feFloodId_0_7" result="dropShadow_1_0_7"/>
<feBlend mode="normal" in="SourceGraphic" in2="dropShadow_1_0_7" result="shape_0_7"/>
</filter>
</defs>
</svg>
