<svg xmlns="http://www.w3.org/2000/svg" xmlns:xlink="http://www.w3.org/1999/xlink" width="65.300048828125" height="134.29998779296875" viewBox="0 0 65.300048828125 134.29998779296875" fill="none">
<path d="M37.15 0.149994L28.15 0.149994C27.15 0.149994 27.15 0.849994 27.15 1.14999L27.15 30.15L11.15 30.15L11.15 6.14999L3.15002 6.14999C1.65004 6.14999 0.150024 9.64999 0.150024 12.15L0.150024 47.15L11.15 47.15L11.15 41.15L27.15 41.16L27.15 131.15C27.15 132.15 27.85 132.15 28.15 132.15L37.15 132.15C38.15 132.15 38.15 131.45 38.15 131.15L38.15 41.16L54.15 41.15L54.15 47.15L65.15 47.15L65.15 12.15C65 10.35 64.15 6.14999 62.15 6.14999L54.15 6.14999L54.15 30.15L38.15 30.15L38.15 1.14999C38.15 0.149994 37.45 0.149994 37.15 0.149994ZM12.1536 57.15L12.1536 130.15C11.8536 131.05 11.1536 133.15 8.15362 134.15L1.15362 134.15L1.15362 59.15C1.75362 58.55 3.15362 57.15 4.15362 57.15L12.1536 57.15ZM53.1536 57.15L53.1536 130.15C53.4536 131.05 54.1536 133.15 57.1536 134.15L64.1536 134.15L64.1536 59.15C63.5536 58.55 62.1536 57.15 61.1536 57.15L53.1536 57.15Z" stroke="rgba(255, 0, 0, 1)" stroke-width="0.3"    fill-rule="evenodd"  fill="url(#linear_fill_0_10)" >
</path>
<defs>
<linearGradient id="linear_fill_0_10" x1="-23.67315673828125" y1="159.66493225097656" x2="81.66522216796875" y2="0.149993896484375" gradientUnits="userSpaceOnUse">
<stop offset="0" stop-color="#FF0000"  />
<stop offset="1" stop-color="#FFFFFF" stop-opacity="0.01" />
</linearGradient>
</defs>
</svg>
