<svg xmlns="http://www.w3.org/2000/svg" xmlns:xlink="http://www.w3.org/1999/xlink" width="178.4998779296875" height="206.4285430908203" viewBox="0 0 178.4998779296875 206.4285430908203" fill="none">
<path    stroke="rgba(0, 0, 0, 1)" stroke-width="1"  stroke-linecap="round"  d="M40.1534 111.945L0.5 150.798">
</path>
<path    stroke="rgba(0, 0, 0, 1)" stroke-width="1"  stroke-linecap="round"  d="M63.9454 118.126L14.5989 165.809">
</path>
<path    stroke="rgba(0, 0, 0, 1)" stroke-width="1"  stroke-linecap="round"  d="M83.3314 126.956L44.5591 164.044">
</path>
<path d="M108.878 83.4442L116.782 34.7699L46.629 103.325L108.878 83.4442Z" stroke="rgba(0, 0, 0, 1)" stroke-width="1"      fill="#FFFFFF" >
</path>
<path d="M116.868 80.8952L127.391 15.6946L33.9851 107.53L46.6127 103.475L115.538 35.7069L117.131 34.1462L116.766 36.3487L109.18 83.3603L116.868 80.8952Z" stroke="rgba(0, 0, 0, 1)" stroke-width="1"    fill-rule="evenodd"  fill="#000000" >
</path>
<path d="M123.627 100.149L128.996 67.3878L81.3448 113.531L123.627 100.149Z" stroke="rgba(0, 0, 0, 1)" stroke-width="1"      fill="#FFFFFF" >
</path>
<path d="M129.056 98.4331L136.203 54.5481L72.7577 116.36L81.3349 113.631L128.152 68.018L129.234 66.9675L128.986 68.4499L123.834 100.092L129.056 98.4331Z" stroke="rgba(0, 0, 0, 1)" stroke-width="1"    fill-rule="evenodd"  fill="#000000" >
</path>
<path d="M140.771 83.4587L150.302 24.5252L65.7076 107.53L140.771 83.4587Z" stroke="rgba(0, 0, 0, 1)" stroke-width="1"      fill="#FFFFFF" >
</path>
<path d="M150.406 80.3723L163.095 1.42934L50.4617 112.621L65.6886 107.711L148.802 25.6597L150.723 23.77L150.283 26.4368L141.136 83.3569L150.406 80.3723Z" stroke="rgba(0, 0, 0, 1)" stroke-width="1"    fill-rule="evenodd"  fill="#000000" >
</path>
<g >
<path     fill="#000000"  d="M43.0959 182.938Q43.6839 182.938 44.1639 183.118Q44.6439 183.298 44.9859 183.634Q45.3279 183.97 45.5139 184.432Q45.6999 184.894 45.6999 185.458Q45.6999 186.022 45.5079 186.484Q45.3159 186.946 44.9739 187.282Q44.6319 187.618 44.1519 187.798Q43.6719 187.978 43.0959 187.978L41.2599 187.978L41.2599 191.578L40.1799 191.578L40.1799 182.938L43.0959 182.938ZM41.2599 187.018L43.0959 187.018Q43.7679 187.018 44.1759 186.592Q44.5839 186.166 44.5839 185.458Q44.5839 184.75 44.1759 184.324Q43.7679 183.898 43.0959 183.898L41.2599 183.898L41.2599 187.018ZM48.6639 184.978L48.6639 186.118L48.7599 186.118Q48.9159 185.53 49.4079 185.194Q49.8999 184.858 50.6199 184.858Q51.6639 184.858 52.2579 185.512Q52.8519 186.166 52.8519 187.306L52.8519 187.678L51.7719 187.678L51.7719 187.438Q51.7719 186.658 51.3819 186.232Q50.9919 185.806 50.2719 185.806Q49.5639 185.806 49.1439 186.244Q48.7239 186.682 48.7239 187.438L48.7239 191.578L47.6439 191.578L47.6439 184.978L48.6639 184.978ZM57.0999 191.698Q56.4879 191.698 56.0019 191.518Q55.5159 191.338 55.1739 191.002Q54.8319 190.666 54.6459 190.186Q54.4599 189.706 54.4599 189.118L54.4599 187.438Q54.4599 186.838 54.6459 186.364Q54.8319 185.89 55.1739 185.554Q55.5159 185.218 56.0019 185.038Q56.4879 184.858 57.0999 184.858Q58.3239 184.858 59.0319 185.542Q59.7399 186.226 59.7399 187.426L59.7399 189.118Q59.7399 190.318 59.0379 191.008Q58.3359 191.698 57.0999 191.698ZM55.5399 189.118Q55.5399 189.874 55.9539 190.306Q56.3679 190.738 57.0999 190.738Q57.8199 190.738 58.2399 190.306Q58.6599 189.874 58.6599 189.118L58.6599 187.438Q58.6599 186.682 58.2399 186.25Q57.8199 185.818 57.0999 185.818Q56.3799 185.818 55.9599 186.25Q55.5399 186.682 55.5399 187.438L55.5399 189.118ZM61.7199 192.622L63.1599 192.622Q63.9159 192.622 64.3779 192.166Q64.8399 191.71 64.8399 190.978L64.8399 185.962L62.0799 185.962L62.0799 184.978L65.9199 184.978L65.9199 190.978Q65.9199 191.554 65.7159 192.04Q65.5119 192.526 65.1459 192.88Q64.7799 193.234 64.2759 193.426Q63.7719 193.618 63.1599 193.618L61.7199 193.618L61.7199 192.622ZM64.3599 183.13Q64.3599 182.806 64.5759 182.602Q64.7919 182.398 65.1399 182.398L65.3799 182.398Q65.7279 182.398 65.9439 182.602Q66.1599 182.806 66.1599 183.13Q66.1599 183.454 65.9439 183.646Q65.7279 183.838 65.3799 183.838L65.1399 183.838Q64.7919 183.838 64.5759 183.652Q64.3599 183.466 64.3599 183.13ZM68.8599 187.378Q68.8599 186.202 69.5619 185.53Q70.2639 184.858 71.4999 184.858Q72.7359 184.858 73.4379 185.53Q74.1399 186.202 74.1399 187.378L74.1399 188.59L69.9399 188.59L69.9399 189.118Q69.9399 189.874 70.3539 190.306Q70.7679 190.738 71.4999 190.738Q72.0399 190.738 72.4359 190.57Q72.8319 190.402 73.0239 190.078L74.1039 190.078Q73.8999 190.834 73.1979 191.266Q72.4959 191.698 71.4999 191.698Q70.2639 191.698 69.5619 191.026Q68.8599 190.354 68.8599 189.178L68.8599 187.378ZM69.9399 187.69L73.0599 187.69L73.0599 187.378Q73.0599 186.634 72.6519 186.226Q72.2439 185.818 71.4999 185.818Q70.7559 185.818 70.3479 186.226Q69.9399 186.634 69.9399 187.378L69.9399 187.69ZM78.7959 191.698Q78.1839 191.698 77.6979 191.518Q77.2119 191.338 76.8699 191.002Q76.5279 190.666 76.3419 190.186Q76.1559 189.706 76.1559 189.118L76.1559 187.438Q76.1559 186.85 76.3419 186.37Q76.5279 185.89 76.8699 185.554Q77.2119 185.218 77.6979 185.038Q78.1839 184.858 78.7959 184.858Q79.8879 184.858 80.5899 185.452Q81.2919 186.046 81.4359 187.078L80.3559 187.078Q80.2719 186.502 79.8459 186.16Q79.4199 185.818 78.7959 185.818Q78.0759 185.818 77.6559 186.25Q77.2359 186.682 77.2359 187.438L77.2359 189.118Q77.2359 189.874 77.6499 190.306Q78.0639 190.738 78.7959 190.738Q79.4199 190.738 79.8459 190.396Q80.2719 190.054 80.3559 189.478L81.4359 189.478Q81.2799 190.522 80.5779 191.11Q79.8759 191.698 78.7959 191.698ZM83.0199 184.978L84.9399 184.978L84.9399 182.938L86.0199 182.938L86.0199 184.978L88.5999 184.978L88.5999 185.962L86.0199 185.962L86.0199 189.874Q86.0199 190.21 86.2299 190.402Q86.4399 190.594 86.7999 190.594L88.4799 190.594L88.4799 191.578L86.7999 191.578Q85.9479 191.578 85.4439 191.11Q84.9399 190.642 84.9399 189.874L84.9399 185.962L83.0199 185.962L83.0199 184.978ZM90.2199 191.878L95.9799 191.878L95.9799 192.778L90.2199 192.778L90.2199 191.878ZM99.7479 190.63L99.7479 183.886L97.8399 183.886L97.8399 182.938L102.76 182.938L102.76 183.886L100.852 183.886L100.852 190.63L102.76 190.63L102.76 191.578L97.8399 191.578L97.8399 190.63L99.7479 190.63ZM107.572 191.698Q106.96 191.698 106.474 191.518Q105.988 191.338 105.646 191.002Q105.304 190.666 105.118 190.186Q104.932 189.706 104.932 189.118L104.932 185.398Q104.932 184.81 105.118 184.33Q105.304 183.85 105.646 183.514Q105.988 183.178 106.474 182.998Q106.96 182.818 107.572 182.818Q108.7 182.818 109.39 183.436Q110.08 184.054 110.212 185.158L109.132 185.158Q109.06 184.51 108.646 184.144Q108.232 183.778 107.572 183.778Q106.852 183.778 106.432 184.21Q106.012 184.642 106.012 185.398L106.012 189.118Q106.012 189.874 106.426 190.306Q106.84 190.738 107.572 190.738Q108.232 190.738 108.646 190.372Q109.06 190.006 109.132 189.358L110.212 189.358Q110.08 190.462 109.39 191.08Q108.7 191.698 107.572 191.698ZM113.98 182.938L115.492 182.938L117.772 191.578L116.62 191.578L116.02 189.142L113.368 189.142L112.756 191.578L111.628 191.578L113.98 182.938ZM115.804 188.242L114.964 184.822Q114.904 184.57 114.856 184.36Q114.808 184.15 114.784 183.982Q114.76 183.802 114.736 183.658L114.688 183.658Q114.664 183.802 114.628 183.982Q114.604 184.15 114.556 184.36Q114.508 184.57 114.448 184.822L113.596 188.242L115.804 188.242ZM119.38 182.938L122.14 182.938Q122.728 182.938 123.208 183.118Q123.688 183.298 124.03 183.634Q124.372 183.97 124.558 184.432Q124.744 184.894 124.744 185.458Q124.744 186.358 124.282 186.988Q123.82 187.618 123.028 187.858L124.864 191.578L123.592 191.578L121.912 187.978L120.46 187.978L120.46 191.578L119.38 191.578L119.38 182.938ZM120.46 187.018L122.14 187.018Q122.824 187.018 123.226 186.592Q123.628 186.166 123.628 185.458Q123.628 184.75 123.22 184.324Q122.812 183.898 122.14 183.898L120.46 183.898L120.46 187.018ZM129.1 191.698Q127.864 191.698 127.192 191.026Q126.52 190.354 126.52 189.178L126.52 182.938L127.6 182.938L127.6 189.178Q127.6 189.898 127.984 190.318Q128.368 190.738 129.1 190.738Q129.82 190.738 130.21 190.318Q130.6 189.898 130.6 189.178L130.6 182.938L131.68 182.938L131.68 189.178Q131.68 190.366 131.008 191.032Q130.336 191.698 129.1 191.698ZM133.54 189.358L134.68 189.358Q134.68 189.982 135.13 190.36Q135.58 190.738 136.324 190.738Q137.092 190.738 137.524 190.384Q137.956 190.03 137.956 189.418Q137.956 188.89 137.644 188.488Q137.332 188.086 136.792 187.894L135.772 187.534Q133.804 186.826 133.804 185.098Q133.804 184.042 134.488 183.43Q135.172 182.818 136.36 182.818Q136.936 182.818 137.41 182.98Q137.884 183.142 138.226 183.442Q138.568 183.742 138.754 184.168Q138.94 184.594 138.952 185.11L137.812 185.11Q137.812 184.498 137.41 184.138Q137.008 183.778 136.348 183.778Q135.676 183.778 135.28 184.108Q134.884 184.438 134.884 185.002Q134.884 185.53 135.172 185.878Q135.46 186.226 136.108 186.466L137.176 186.85Q138.088 187.174 138.574 187.828Q139.06 188.482 139.06 189.382Q139.06 190.462 138.322 191.08Q137.584 191.698 136.3 191.698Q135.688 191.698 135.184 191.53Q134.68 191.362 134.32 191.056Q133.96 190.75 133.756 190.318Q133.552 189.886 133.54 189.358Z">
</path>
<path fill-rule="evenodd"  fill="rgba(255, 255, 255, 1)"  d="M65.1399,182.298h0.24c0.25853,0 0.46943,0.077 0.6327,0.231c0.16487,0.156 0.2473,0.35633 0.2473,0.601c0,0.246 -0.08317,0.44267 -0.2495,0.59c-0.16293,0.14533 -0.3731,0.218 -0.6305,0.218h-0.24c-0.25673,0 -0.46647,-0.07033 -0.6292,-0.211c-0.1672,-0.144 -0.2508,-0.343 -0.2508,-0.597c0,-0.24467 0.08247,-0.445 0.2474,-0.601c0.16327,-0.154 0.37413,-0.231 0.6326,-0.231zM64.5759,182.602c-0.144,0.136 -0.216,0.312 -0.216,0.528c0,0.224 0.072,0.398 0.216,0.522c0.144,0.124 0.332,0.186 0.564,0.186h0.24c0.232,0 0.42,-0.064 0.564,-0.192c0.144,-0.128 0.216,-0.3 0.216,-0.516c0,-0.216 -0.072,-0.392 -0.216,-0.528c-0.144,-0.136 -0.332,-0.204 -0.564,-0.204h-0.24c-0.232,0 -0.42,0.068 -0.564,0.204zM105.576,191.073c-0.238,-0.234 -0.42167,-0.51767 -0.551,-0.851c-0.12867,-0.332 -0.193,-0.7 -0.193,-1.104v-3.72c0,-0.40467 0.06433,-0.77267 0.193,-1.104c0.12933,-0.334 0.313,-0.618 0.551,-0.852c0.238,-0.234 0.52567,-0.41333 0.863,-0.538c0.33533,-0.124 0.713,-0.186 1.133,-0.186c0.77733,0 1.40567,0.21433 1.885,0.643c0.47867,0.42867 0.76333,1.02367 0.854,1.785l0.014,0.112h-1.283l-0.009,-0.089c-0.04533,-0.40667 -0.19633,-0.72333 -0.453,-0.95c-0.25733,-0.22733 -0.59333,-0.341 -1.008,-0.341c-0.452,0 -0.808,0.13367 -1.068,0.401c-0.26133,0.26867 -0.392,0.64167 -0.392,1.119v3.72c0,0.47667 0.12867,0.84933 0.386,1.118c0.25667,0.268 0.61467,0.402 1.074,0.402c0.41467,0 0.75067,-0.11367 1.008,-0.341c0.25667,-0.22733 0.40767,-0.544 0.453,-0.95l0.009,-0.089h1.283l-0.014,0.112c-0.09067,0.76067 -0.37533,1.35533 -0.854,1.784c-0.47933,0.42933 -1.10767,0.644 -1.885,0.644c-0.42,0 -0.79767,-0.06233 -1.133,-0.187c-0.33733,-0.12467 -0.625,-0.304 -0.863,-0.538zM134.78,189.358c0,0.38467 0.138,0.693 0.414,0.925c0.28133,0.23667 0.658,0.355 1.13,0.355c0.488,0 0.867,-0.11067 1.137,-0.332c0.26333,-0.216 0.395,-0.512 0.395,-0.888c0,-0.32933 -0.097,-0.619 -0.291,-0.869c-0.196,-0.25267 -0.465,-0.43967 -0.807,-0.561l-1.019,-0.36c-1.35667,-0.488 -2.035,-1.33133 -2.035,-2.53c0,-0.734 0.239,-1.315 0.717,-1.743c0.47533,-0.42467 1.12167,-0.637 1.939,-0.637c0.39533,0 0.756,0.05567 1.082,0.167c0.32867,0.112 0.612,0.27233 0.85,0.481c0.23933,0.21 0.424,0.464 0.554,0.762c0.12933,0.296 0.198,0.62233 0.206,0.979l0.002,0.103h-1.342v-0.1c0,-0.37867 -0.123,-0.678 -0.369,-0.898c-0.24867,-0.22267 -0.58033,-0.334 -0.995,-0.334c-0.424,0 -0.75867,0.102 -1.004,0.306c-0.24,0.2 -0.36,0.47267 -0.36,0.818c0,0.328 0.08833,0.59867 0.265,0.812c0.18067,0.218 0.47867,0.404 0.894,0.558l1.067,0.384c0.62667,0.22267 1.108,0.56 1.444,1.012c0.33733,0.454 0.506,0.992 0.506,1.614c0,0.75067 -0.258,1.342 -0.774,1.774c-0.51067,0.428 -1.206,0.642 -2.086,0.642c-0.41867,0 -0.80133,-0.05767 -1.148,-0.173c-0.348,-0.11667 -0.647,-0.281 -0.897,-0.493c-0.25067,-0.21333 -0.447,-0.47067 -0.589,-0.772c-0.14267,-0.30067 -0.218,-0.634 -0.226,-1l-0.002,-0.102h1.342zM106.474,191.518c0.324,0.12 0.69,0.18 1.098,0.18c0.752,0 1.358,-0.206 1.818,-0.618c0.43867,-0.39333 0.70833,-0.934 0.809,-1.622c0.00467,-0.03333 0.009,-0.06667 0.013,-0.1h-1.08c-0.048,0.432 -0.21,0.77 -0.486,1.014c-0.276,0.244 -0.634,0.366 -1.074,0.366c-0.488,0 -0.87,-0.144 -1.146,-0.432c-0.276,-0.288 -0.414,-0.684 -0.414,-1.188v-3.72c0,-0.504 0.14,-0.9 0.42,-1.188c0.28,-0.288 0.66,-0.432 1.14,-0.432c0.44,0 0.798,0.122 1.074,0.366c0.276,0.244 0.438,0.582 0.486,1.014h1.08c-0.004,-0.034 -0.00833,-0.06733 -0.013,-0.1c-0.10067,-0.68867 -0.37033,-1.22933 -0.809,-1.622c-0.46,-0.412 -1.066,-0.618 -1.818,-0.618c-0.408,0 -0.774,0.06 -1.098,0.18c-0.324,0.12 -0.6,0.292 -0.828,0.516c-0.228,0.224 -0.404,0.496 -0.528,0.816c-0.124,0.32 -0.186,0.676 -0.186,1.068v3.72c0,0.392 0.062,0.748 0.186,1.068c0.124,0.32 0.3,0.592 0.528,0.816c0.228,0.224 0.504,0.396 0.828,0.516zM133.64,189.358h-0.1c0.00067,0.03333 0.002,0.06667 0.004,0.1c0.018,0.31267 0.08867,0.59933 0.212,0.86c0.136,0.288 0.324,0.534 0.564,0.738c0.24,0.204 0.528,0.362 0.864,0.474c0.336,0.112 0.708,0.168 1.116,0.168c0.856,0 1.53,-0.206 2.022,-0.618c0.492,-0.412 0.738,-0.978 0.738,-1.698c0,-0.6 -0.162,-1.118 -0.486,-1.554c-0.324,-0.436 -0.79,-0.762 -1.398,-0.978l-1.068,-0.384c-0.432,-0.16 -0.744,-0.356 -0.936,-0.588c-0.192,-0.232 -0.288,-0.524 -0.288,-0.876c0,-0.376 0.132,-0.674 0.396,-0.894c0.264,-0.22 0.62,-0.33 1.068,-0.33c0.44,0 0.794,0.12 1.062,0.36c0.268,0.24 0.402,0.564 0.402,0.972h1.14c-0.00067,-0.034 -0.002,-0.06733 -0.004,-0.1c-0.01733,-0.30533 -0.082,-0.586 -0.194,-0.842c-0.124,-0.284 -0.3,-0.526 -0.528,-0.726c-0.228,-0.2 -0.5,-0.354 -0.816,-0.462c-0.316,-0.108 -0.666,-0.162 -1.05,-0.162c-0.792,0 -1.416,0.204 -1.872,0.612c-0.456,0.408 -0.684,0.964 -0.684,1.668c0,1.152 0.656,1.964 1.968,2.436l1.02,0.36c0.36,0.128 0.644,0.326 0.852,0.594c0.208,0.268 0.312,0.578 0.312,0.93c0,0.408 -0.144,0.73 -0.432,0.966c-0.288,0.236 -0.688,0.354 -1.2,0.354c-0.496,0 -0.894,-0.126 -1.194,-0.378c-0.3,-0.252 -0.45,-0.586 -0.45,-1.002zM45.056,183.562c0.23793,0.234 0.4215,0.51133 0.5507,0.832c0.1288,0.32 0.1932,0.67467 0.1932,1.064c0,0.38933 -0.06653,0.744 -0.1996,1.064c-0.1332,0.32067 -0.31863,0.59767 -0.5563,0.831c-0.23807,0.234 -0.5237,0.41333 -0.8569,0.538c-0.33133,0.12467 -0.69507,0.187 -1.0912,0.187h-1.736v3.6h-1.28v-8.84h3.016c0.40413,0 0.77187,0.062 1.1032,0.186c0.3332,0.12467 0.61883,0.304 0.8569,0.538zM41.3599,187.978h1.736c0.384,0 0.736,-0.06 1.056,-0.18c0.32,-0.12 0.594,-0.292 0.822,-0.516c0.228,-0.224 0.406,-0.49 0.534,-0.798c0.128,-0.308 0.192,-0.65 0.192,-1.026c0,-0.376 -0.062,-0.718 -0.186,-1.026c-0.124,-0.308 -0.3,-0.574 -0.528,-0.798c-0.228,-0.224 -0.502,-0.396 -0.822,-0.516c-0.32,-0.12 -0.676,-0.18 -1.068,-0.18h-2.916v8.64h1.08v-3.6zM84.8399,182.838h1.28v2.04h2.58v1.184h-2.58v3.812c0.00007,0.19467 0.05923,0.346 0.1775,0.454c0.12093,0.11067 0.28843,0.166 0.5025,0.166h1.78v1.184h-1.78c-0.5942,0 -1.06887,-0.165 -1.424,-0.495c-0.35733,-0.332 -0.536,-0.76833 -0.536,-1.309v-3.812h-1.92v-1.184h1.92zM84.9399,184.878v0.1h-1.92v0.984h1.92v3.912c0,0.512 0.168,0.924 0.504,1.236c0.336,0.312 0.788,0.468 1.356,0.468h1.68v-0.984h-1.68c-0.24,0 -0.43,-0.064 -0.57,-0.192c-0.14,-0.128 -0.21,-0.304 -0.21,-0.528v-3.912h2.58v-0.984h-2.58v-2.04h-1.08zM97.7399,183.986v-1.148h5.1201v1.148h-1.908v6.544h1.908v1.148h-5.1201v-1.148h1.908v-6.544zM99.6479,183.886h0.1v6.744h-1.908v0.948h4.9201v-0.948h-1.908v-6.744h1.908v-0.948h-4.9201v0.948zM117.902,191.678h-1.36l-0.6,-2.436h-2.496l-0.612,2.436h-1.337l2.407,-8.84h1.665zM116.02,189.142l0.6,2.436h1.152l-0.026,-0.1l-2.254,-8.54h-1.512l-2.325,8.54l-0.027,0.1h1.128l0.612,-2.436zM123.243,183.024c0.33333,0.12467 0.619,0.304 0.857,0.538c0.238,0.234 0.42167,0.51133 0.551,0.832c0.12867,0.32 0.193,0.67467 0.193,1.064c0,0.62133 -0.16033,1.151 -0.481,1.589c-0.29933,0.40733 -0.69733,0.69733 -1.194,0.87l1.856,3.761h-1.497l-1.68,-3.6h-1.288v3.6h-1.28v-8.84h2.86c0.404,0 0.77167,0.062 1.103,0.186zM123.073,187.949l-0.045,-0.091c0.03267,-0.01 0.06467,-0.02033 0.096,-0.031c0.48267,-0.16533 0.86867,-0.445 1.158,-0.839c0.308,-0.42 0.462,-0.93 0.462,-1.53c0,-0.376 -0.062,-0.718 -0.186,-1.026c-0.124,-0.308 -0.3,-0.574 -0.528,-0.798c-0.228,-0.224 -0.502,-0.396 -0.822,-0.516c-0.32,-0.12 -0.676,-0.18 -1.068,-0.18h-2.76v8.64h1.08v-3.6h1.452l1.68,3.6h1.272l-0.049,-0.1zM126.42,189.178v-6.34h1.28v6.34c0,0.454 0.11933,0.81133 0.358,1.072c0.236,0.25867 0.58333,0.388 1.042,0.388c0.45067,0 0.79633,-0.12933 1.037,-0.388c0.242,-0.26133 0.363,-0.61867 0.363,-1.072v-6.34h1.28v6.34c0,0.81933 -0.234,1.461 -0.702,1.925c-0.46733,0.46333 -1.12667,0.695 -1.978,0.695c-0.85133,0 -1.511,-0.234 -1.979,-0.702c-0.46733,-0.46733 -0.701,-1.10667 -0.701,-1.918zM131.68,182.938h-1.08v6.24c0,0.48 -0.13,0.86 -0.39,1.14c-0.26,0.28 -0.63,0.42 -1.11,0.42c-0.488,0 -0.86,-0.14 -1.116,-0.42c-0.256,-0.28 -0.384,-0.66 -0.384,-1.14v-6.24h-1.08v6.24c0,0.784 0.224,1.4 0.672,1.848c0.448,0.448 1.084,0.672 1.908,0.672c0.824,0 1.46,-0.222 1.908,-0.666c0.448,-0.444 0.672,-1.062 0.672,-1.854v-6.14zM115.779,188.142l0.025,0.1h-2.208l0.025,-0.1l0.827,-3.32c0.04,-0.168 0.076,-0.322 0.108,-0.462c0.032,-0.14 0.056,-0.266 0.072,-0.378c0.01133,-0.058 0.022,-0.113 0.032,-0.165c0.01,-0.05333 0.019,-0.10367 0.027,-0.151c0,-0.00267 0.00033,-0.00533 0.001,-0.008h0.048c0.00067,0.00267 0.001,0.00533 0.001,0.008c0.008,0.048 0.016,0.099 0.024,0.153c0.008,0.05133 0.01567,0.10567 0.023,0.163c0.016,0.112 0.04,0.238 0.072,0.378c0.032,0.14 0.068,0.294 0.108,0.462zM114.867,184.846c-0.04067,-0.17 -0.077,-0.32467 -0.109,-0.464c-0.02067,-0.09133 -0.038,-0.17667 -0.052,-0.256c-0.014,0.07933 -0.03167,0.16467 -0.053,0.256c-0.03133,0.13867 -0.06733,0.293 -0.108,0.463l-0.821,3.297h1.952zM41.3599,187.018h-0.1v-3.12h0.1h1.736c0.448,0 0.808,0.142 1.08,0.426c0.272,0.284 0.408,0.662 0.408,1.134c0,0.472 -0.136,0.85 -0.408,1.134c-0.272,0.284 -0.632,0.426 -1.08,0.426zM43.0959,186.918c0.41953,0 0.75547,-0.132 1.0078,-0.396c0.25347,-0.26467 0.3802,-0.61933 0.3802,-1.064c0,-0.44533 -0.12673,-0.80033 -0.3802,-1.065c-0.25227,-0.26333 -0.5882,-0.395 -1.0078,-0.395h-1.736v2.92zM120.56,187.018h-0.1v-3.12h0.1h1.58c0.448,0 0.808,0.142 1.08,0.426c0.272,0.284 0.408,0.662 0.408,1.134c0,0.472 -0.134,0.85 -0.402,1.134c-0.268,0.284 -0.63,0.426 -1.086,0.426zM120.56,186.918h1.58c0.42733,0 0.765,-0.13167 1.013,-0.395c0.25,-0.26467 0.375,-0.61967 0.375,-1.065c0,-0.44533 -0.12667,-0.80033 -0.38,-1.065c-0.25267,-0.26333 -0.58867,-0.395 -1.008,-0.395h-1.58zM49.3515,185.111c0.345,-0.23533 0.7678,-0.353 1.2684,-0.353c0.72553,0 1.29623,0.22867 1.7121,0.686c0.41333,0.45533 0.61997,1.076 0.6199,1.862v0.472h-1.28v-0.34c0,-0.494 -0.12123,-0.87367 -0.3637,-1.139c-0.2402,-0.262 -0.58563,-0.393 -1.0363,-0.393c-0.44353,0 -0.79547,0.13567 -1.0558,0.407c-0.26147,0.27267 -0.3922,0.64767 -0.3922,1.125v4.24h-1.28v-6.8h1.22v0.929c0.12733,-0.28333 0.3232,-0.51533 0.5876,-0.696zM48.7599,186.118h-0.096v-1.14h-1.02v6.6h1.08v-4.14c0,-0.504 0.14,-0.902 0.42,-1.194c0.28,-0.292 0.656,-0.438 1.128,-0.438c0.48,0 0.85,0.142 1.11,0.426c0.26,0.284 0.39,0.686 0.39,1.206v0.24h1.08v-0.372c0,-0.76 -0.198,-1.358 -0.594,-1.794c-0.396,-0.436 -0.942,-0.654 -1.638,-0.654c-0.48,0 -0.884,0.112 -1.212,0.336c-0.3238,0.22067 -0.53847,0.52367 -0.644,0.909c-0.00133,0.00467 -0.00267,0.00967 -0.004,0.015zM55.1039,191.073c-0.23827,-0.234 -0.422,-0.51767 -0.5512,-0.851c-0.12853,-0.332 -0.1928,-0.7 -0.1928,-1.104v-1.68c0,-0.41267 0.06433,-0.783 0.193,-1.111c0.1292,-0.32933 0.31287,-0.611 0.551,-0.845c0.23813,-0.234 0.5259,-0.41333 0.8633,-0.538c0.3352,-0.124 0.71277,-0.186 1.1327,-0.186c0.843,0 1.51017,0.23733 2.0015,0.712c0.49233,0.47533 0.7385,1.12733 0.7385,1.956v1.692c0,0.828 -0.24397,1.48167 -0.7319,1.961c-0.48747,0.47933 -1.15683,0.719 -2.0081,0.719c-0.41993,0 -0.7975,-0.06233 -1.1327,-0.187c-0.3374,-0.12467 -0.62517,-0.304 -0.8633,-0.538zM71.4999,184.758c0.8508,0 1.51987,0.233 2.0072,0.699c0.48853,0.468 0.7328,1.10833 0.7328,1.921v1.312h-4.2v0.428c0,0.47667 0.12873,0.84933 0.3862,1.118c0.25633,0.268 0.61427,0.402 1.0738,0.402c0.34647,0 0.64547,-0.05333 0.897,-0.16c0.2438,-0.104 0.42413,-0.25433 0.541,-0.451l0.0291,-0.049h1.2675l-0.034,0.126c-0.14287,0.52933 -0.45957,0.945 -0.9501,1.247c-0.48413,0.298 -1.06763,0.447 -1.7505,0.447c-0.85073,0 -1.51977,-0.23333 -2.0071,-0.7c-0.4886,-0.468 -0.7329,-1.108 -0.7329,-1.92v-1.8c0,-0.81267 0.2443,-1.453 0.7329,-1.921c0.48733,-0.466 1.15637,-0.699 2.0071,-0.699zM70.0399,188.59h4.1v-1.212c0,-0.784 -0.234,-1.4 -0.702,-1.848c-0.468,-0.448 -1.114,-0.672 -1.938,-0.672c-0.824,0 -1.47,0.224 -1.938,0.672c-0.468,0.448 -0.702,1.064 -0.702,1.848v1.8c0,0.784 0.234,1.4 0.702,1.848c0.468,0.448 1.114,0.672 1.938,0.672c0.664,0 1.23,-0.144 1.698,-0.432c0.4366,-0.26867 0.72873,-0.63133 0.8764,-1.088c0.0106,-0.03333 0.02047,-0.06667 0.0296,-0.1h-1.08c-0.128,0.216 -0.324,0.38 -0.588,0.492c-0.264,0.112 -0.576,0.168 -0.936,0.168c-0.488,0 -0.87,-0.144 -1.146,-0.432c-0.276,-0.288 -0.414,-0.684 -0.414,-1.188v-0.528zM76.7999,191.073c-0.23827,-0.234 -0.422,-0.51767 -0.5512,-0.851c-0.12853,-0.332 -0.1928,-0.7 -0.1928,-1.104v-1.68c0,-0.40467 0.06427,-0.77267 0.1928,-1.104c0.1292,-0.334 0.31293,-0.618 0.5512,-0.852c0.23813,-0.234 0.5259,-0.41333 0.8633,-0.538c0.3352,-0.124 0.71277,-0.186 1.1327,-0.186c0.75247,0 1.372,0.20567 1.8586,0.617c0.48747,0.41267 0.78097,0.97567 0.8805,1.689l0.0159,0.114h-1.2814l-0.0125,-0.086c-0.0522,-0.358 -0.2101,-0.64267 -0.4737,-0.854c-0.26567,-0.21333 -0.5948,-0.32 -0.9874,-0.32c-0.4518,0 -0.8079,0.13367 -1.0683,0.401c-0.26113,0.26867 -0.3917,0.64167 -0.3917,1.119v1.68c0,0.47667 0.12873,0.84933 0.3862,1.118c0.25633,0.268 0.61427,0.402 1.0738,0.402c0.3926,0 0.72173,-0.10667 0.9874,-0.32c0.2636,-0.212 0.4215,-0.497 0.4737,-0.855l0.0125,-0.085h1.2825l-0.0172,0.114c-0.10773,0.72133 -0.4053,1.286 -0.8927,1.694c-0.48653,0.408 -1.10193,0.612 -1.8462,0.612c-0.41993,0 -0.7975,-0.06233 -1.1327,-0.187c-0.3374,-0.12467 -0.62517,-0.304 -0.8633,-0.538zM56.0019,191.518c0.324,0.12 0.69,0.18 1.098,0.18c0.824,0 1.47,-0.23 1.938,-0.69c0.468,-0.46 0.702,-1.09 0.702,-1.89v-1.692c0,-0.8 -0.236,-1.428 -0.708,-1.884c-0.472,-0.456 -1.116,-0.684 -1.932,-0.684c-0.408,0 -0.774,0.06 -1.098,0.18c-0.324,0.12 -0.6,0.292 -0.828,0.516c-0.228,0.224 -0.404,0.494 -0.528,0.81c-0.124,0.316 -0.186,0.674 -0.186,1.074v1.68c0,0.392 0.062,0.748 0.186,1.068c0.124,0.32 0.3,0.592 0.528,0.816c0.228,0.224 0.504,0.396 0.828,0.516zM77.6979,191.518c0.324,0.12 0.69,0.18 1.098,0.18c0.72,0 1.314,-0.196 1.782,-0.588c0.4454,-0.37333 0.72597,-0.884 0.8417,-1.532c0.00587,-0.03333 0.0113,-0.06667 0.0163,-0.1h-1.08c-0.056,0.384 -0.226,0.69 -0.51,0.918c-0.284,0.228 -0.634,0.342 -1.05,0.342c-0.488,0 -0.87,-0.144 -1.146,-0.432c-0.276,-0.288 -0.414,-0.684 -0.414,-1.188v-1.68c0,-0.504 0.14,-0.9 0.42,-1.188c0.28,-0.288 0.66,-0.432 1.14,-0.432c0.416,0 0.766,0.114 1.05,0.342c0.284,0.228 0.454,0.534 0.51,0.918h1.08c-0.00467,-0.034 -0.0098,-0.06733 -0.0154,-0.1c-0.1086,-0.64067 -0.38547,-1.14933 -0.8306,-1.526c-0.468,-0.396 -1.066,-0.594 -1.794,-0.594c-0.408,0 -0.774,0.06 -1.098,0.18c-0.324,0.12 -0.6,0.292 -0.828,0.516c-0.228,0.224 -0.404,0.496 -0.528,0.816c-0.124,0.32 -0.186,0.676 -0.186,1.068v1.68c0,0.392 0.062,0.748 0.186,1.068c0.124,0.32 0.3,0.592 0.528,0.816c0.228,0.224 0.504,0.396 0.828,0.516zM64.3077,192.094c0.28813,-0.284 0.4322,-0.656 0.4322,-1.116v-4.916h-2.76v-1.184h4.04v6.1c0.00007,0.39733 -0.0705,0.764 -0.2117,1.1c-0.14133,0.33667 -0.3389,0.628 -0.5927,0.874c-0.25387,0.24533 -0.5552,0.43433 -0.904,0.567c-0.34747,0.13267 -0.73133,0.199 -1.1516,0.199h-1.54v-1.196h1.54c0.47667,0 0.85927,-0.14267 1.1478,-0.428zM64.7399,185.962h0.1v5.016c0,0.488 -0.154,0.884 -0.462,1.188c-0.308,0.304 -0.714,0.456 -1.218,0.456h-1.44v0.996h1.44c0.408,0 0.78,-0.064 1.116,-0.192c0.336,-0.128 0.626,-0.31 0.87,-0.546c0.244,-0.236 0.434,-0.516 0.57,-0.84c0.136,-0.324 0.204,-0.678 0.204,-1.062v-6h-3.84v0.984zM55.9539,190.306c-0.276,-0.288 -0.414,-0.684 -0.414,-1.188v-1.68c0,-0.504 0.14,-0.9 0.42,-1.188c0.28,-0.288 0.66,-0.432 1.14,-0.432c0.48,0 0.86,0.144 1.14,0.432c0.28,0.288 0.42,0.684 0.42,1.188v1.68c0,0.504 -0.14,0.9 -0.42,1.188c-0.28,0.288 -0.66,0.432 -1.14,0.432c-0.488,0 -0.87,-0.144 -1.146,-0.432zM70.0399,187.69h-0.1v-0.312c0,-0.496 0.136,-0.88 0.408,-1.152c0.272,-0.272 0.656,-0.408 1.152,-0.408c0.496,0 0.88,0.136 1.152,0.408c0.272,0.272 0.408,0.656 0.408,1.152v0.312zM72.9599,187.59v-0.212c0.00007,-0.46867 -0.12617,-0.82933 -0.3787,-1.082c-0.25247,-0.252 -0.6129,-0.378 -1.0813,-0.378c-0.46833,0 -0.82877,0.126 -1.0813,0.378c-0.25247,0.25267 -0.3787,0.61333 -0.3787,1.082v0.212zM57.0999,190.638c0.45187,0 0.80797,-0.134 1.0683,-0.402c0.26113,-0.26867 0.3917,-0.64133 0.3917,-1.118v-1.68c0.00007,-0.47733 -0.1305,-0.85033 -0.3917,-1.119c-0.26033,-0.26733 -0.61643,-0.401 -1.0683,-0.401c-0.4518,0 -0.8079,0.13367 -1.0683,0.401c-0.26113,0.26867 -0.3917,0.64167 -0.3917,1.119v1.68c0,0.47667 0.12873,0.84933 0.3862,1.118c0.25633,0.268 0.61427,0.402 1.0738,0.402zM96.0799,192.878h-5.96v-1.1h5.96zM90.3199,191.878h-0.1v0.9h0.1h5.56h0.1v-0.9z">
</path>
</g>
</svg>
