<svg xmlns="http://www.w3.org/2000/svg" xmlns:xlink="http://www.w3.org/1999/xlink" width="207.94000244140625" height="225.84005737304688" viewBox="0 0 207.94000244140625 225.84005737304688" fill="none">
<g filter="url(#filter_-tJle9FattogW1R4Biug2)">
<path d="M120.86 215.48C103.63 219.82 85.61 219.84 68.37 215.54L65.79 215.61L65.63 212.62C79.05 211.92 92.18 208.5 104.21 202.56C116.24 196.62 126.91 188.3 135.55 178.1C144.19 167.91 150.62 156.06 154.44 143.3C158.25 130.54 159.38 117.14 157.74 103.93C157.263 100.087 156.556 96.2848 155.624 92.5424C133.115 80.3828 143.5 92.7459 143.5 92.7459L118.5 92.7459C103 92.7459 96 86.4459 93 83.7459L85 83.7459L85 86.7459L84.5 86.7459L84.5 90.7459L73.5 90.7459L73.5 84.7459L57.5 84.7459L57.5 102.246L58 102.246L58 105.156C62.3083 107.316 65 110.55 65 113.246L72 113.246L72 105.246L72.5 105.246L72.5 100.746L81 100.746C84.5 100.746 84.5 102.846 84.5 103.746L84.5 105.246L85 105.246L85 106.464C85.9293 106.324 86.9276 106.246 88 106.246C92.2 106.996 102 108.746 102 113.246C109.2 112.946 126 112.246 126 117.746C122.85 120.746 115.5 127.746 98.5 127.746L84.5 127.746L84.5 177.746L77.5 177.746C72.5 177.746 72.5 174.246 72.5 172.746L72.5 125.246L72 125.246L72 123.251C71.515 123.247 71.0151 123.246 70.5 123.246L58 123.246L58 124.246L57.5 124.246L57.5 174.746C57.5 174.936 57.5 175.276 57.26 175.506C57.03 175.746 56.69 175.746 56.5 175.746L47.5 175.746C47.31 175.746 46.97 175.746 46.74 175.506C46.5 175.276 46.5 174.936 46.5 174.746L46.5 124.246L46 124.246L46 123.246L32 123.246L32 124.246L31.5 124.246L31.5 172.746C31.5 174.246 31.5 177.746 26.5 177.746L19.5 177.746L19.5 124.246L19 124.246L19 123.246L4 123.246C5.7472 121.965 9.30342 119.357 19 118.255L19 117.413L19.5 117.204L19.5 103.746C19.5 102.846 19.5 100.746 23 100.746L31.5 100.746L31.5 112.204L32 111.996L32 112.853C35.0144 108.476 39.6172 103.511 46 102.826L46 102.246L46.5 102.246L46.5 84.7459L30.5 84.7459L30.5 90.7459L19.5 90.7459L19.5 54.7459C19.5 53.8159 19.5 52.1059 20.22 50.9459C20.92 49.7459 21.94 49.7459 22.5 49.7459L30.5 49.7459L30.5 73.7459L46.5 73.7459L46.5 44.7459C46.5 44.5559 46.5 44.2159 46.74 43.9859C46.97 43.7459 47.31 43.7459 47.5 43.7459L56.5 43.7459C56.69 43.7459 57.03 43.7459 57.26 43.9859C57.5 44.2159 57.5 44.5559 57.5 44.7459L57.5 73.7459L73.5 73.7459L73.5 49.7459L81.5 49.7459C82.06 49.7459 83.08 49.7459 83.78 50.9459C84.5 52.1059 84.5 53.8159 84.5 54.7459L84.5 60.7459L85 60.7459L85 62.0805C87.3043 60.3596 89.9616 59.2459 93 59.2459C98.85 60.1459 112.5 62.2459 112.5 72.7459C113.535 66.242 115.929 51.1923 133.224 50.7556C128.677 45.7681 123.608 41.2496 118.09 37.28C107.21 29.45 94.83 23.93 81.7 21.05C68.58 18.17 55 17.99 41.81 20.53L41.81 20.25C41.81 20.25 40.94 20.7 40.54 20.95L39.71 19.56L38.88 18.18C54.1 9.03 71.34 3.78 89.08 2.89C106.82 2 124.51 5.49 140.57 13.07C156.63 20.65 170.58 32.07 181.18 46.32C191.77 60.57 198.69 77.22 201.31 94.79C203.94 112.35 202.19 130.29 196.23 147.02C190.26 163.75 180.26 178.75 167.12 190.69C153.97 202.64 138.08 211.15 120.86 215.48ZM84.5 36.7959L84 36.2459L84.5 35.7959C86.74 35.7959 88.53 34.9759 89.87 33.3459C90.37 32.7359 90.77 32.0659 91.08 31.3159C91.32 30.7159 91.46 30.1959 91.5 29.7459L92 29.2459L92.5 29.7459C92.54 30.1959 92.76 30.7159 93 31.3159C93.31 32.0659 93.5 32.7359 94 33.3459C95.35 34.9759 97.26 35.7959 99.5 35.7959L100 36.2459L99.5 36.7959C99.24 36.7959 98.91 36.8759 98.5 37.0359C98.02 37.2259 97.5 37.4959 97 37.8459C95.73 38.7259 94.78 39.8759 94 41.3159C93.04 43.0659 92.5 45.3959 92.5 48.2959L92 50.2459L91.5 48.2959C91.5 45.3959 91.02 43.0659 90.06 41.3159C89.28 39.8759 88.25 38.7259 86.99 37.8459C86.48 37.4959 85.99 37.2259 85.51 37.0359C85.1 36.8759 84.76 36.7959 84.5 36.7959ZM85 125.246L84.5 125.246L84.5 127.075C86.3465 126.182 88.0095 125.009 85 124.197L85 125.246ZM132.75 136.416L132.5 136.076L132.75 135.796C133.87 135.796 134.76 135.296 135.44 134.286C135.68 133.906 135.89 133.486 136.04 133.026C136.16 132.656 136.23 132.336 136.25 132.056L136.5 131.746L136.75 132.056C136.77 132.336 136.88 132.656 137 133.026C137.15 133.486 137.25 133.906 137.5 134.286C138.17 135.296 139.13 135.796 140.25 135.796L140.5 136.076L140.25 136.416C140.12 136.416 139.96 136.466 139.75 136.566C139.51 136.686 139.25 136.856 139 137.066C138.37 137.616 137.89 138.326 137.5 139.216C137.02 140.306 136.75 141.746 136.75 143.536L136.5 144.746L136.25 143.536C136.25 141.746 136.01 140.306 135.53 139.216C135.14 138.326 134.63 137.616 133.99 137.066C133.74 136.856 133.5 136.686 133.25 136.566C133.05 136.466 132.88 136.416 132.75 136.416Z" fill-rule="evenodd"  fill="url(#linear_fill_-tJle9FattogW1R4Biug2)" >
</path>
</g>
<defs>
<linearGradient id="linear_fill_-tJle9FattogW1R4Biug2" x1="245.5951690673828" y1="37.75190734863281" x2="-6.8817138671875" y2="175.45372009277344" gradientUnits="userSpaceOnUse">
<stop offset="0" stop-color="#3B38FC"  />
<stop offset="1" stop-color="#FF8F8F"  />
</linearGradient>
<filter id="filter_-tJle9FattogW1R4Biug2" x="0" y="0" width="207.94000244140625" height="225.84005737304688" filterUnits="userSpaceOnUse" color-interpolation-filters="sRGB">
<feFlood flood-opacity="0" result="feFloodId_-tJle9FattogW1R4Biug2"/>
<feColorMatrix in="SourceAlpha" type="matrix" values="0 0 0 0 0 0 0 0 0 0 0 0 0 0 0 0 0 0 127 0" result="hardAlpha_-tJle9FattogW1R4Biug2"/>
<feOffset dx="0" dy="2"/>
<feGaussianBlur stdDeviation="2"/>
<feComposite in2="hardAlpha_-tJle9FattogW1R4Biug2" operator="out"/>
<feColorMatrix type="matrix" values="0 0 0 0 0 0 0 0 0 0 0 0 0 0 0 0 0 0 0.25 0"/>
<feBlend mode="normal" in2="feFloodId_-tJle9FattogW1R4Biug2" result="dropShadow_1_-tJle9FattogW1R4Biug2"/>
<feBlend mode="normal" in="SourceGraphic" in2="dropShadow_1_-tJle9FattogW1R4Biug2" result="shape_-tJle9FattogW1R4Biug2"/>
</filter>
</defs>
</svg>
