<svg xmlns="http://www.w3.org/2000/svg" xmlns:xlink="http://www.w3.org/1999/xlink" width="177" height="177" viewBox="0 0 177 177" fill="none">
<path     fill="#000000"  d="M165.143 54.6423L165.143 122.358C165.143 128.788 161.712 134.731 156.143 137.946L97.5 171.804C91.9308 175.019 85.0692 175.019 79.5 171.804L20.8568 137.946C15.2875 134.731 11.8568 128.788 11.8568 122.358L11.8568 54.6423C11.8568 48.2115 15.2875 42.2692 20.8568 39.0538L79.5 5.19615C85.0692 1.98076 91.9308 1.98076 97.5 5.19615L156.143 39.0538C161.712 42.2692 165.143 48.2115 165.143 54.6423Z">
</path>
<path fill-rule="evenodd"  fill="rgba(0, 0, 0, 1)"  d="M165.643 122.358L165.643 54.6423Q165.643 52.1843 165.003 49.8153Q164.373 47.485 163.165 45.3923Q161.957 43.2998 160.253 41.5889Q158.522 39.8499 156.393 38.6208L97.75 4.76314Q95.6212 3.53409 93.2495 2.90425Q90.9162 2.28461 88.5 2.28461Q86.0838 2.28461 83.7505 2.90425Q81.3788 3.53409 79.25 4.76314L20.6068 38.6208Q18.478 39.8499 16.7466 41.5889Q15.0434 43.2998 13.8353 45.3923Q12.6272 47.4848 11.9972 49.8153Q11.3568 52.1842 11.3568 54.6423L11.3567 122.358Q11.3568 124.816 11.9972 127.185Q12.6272 129.515 13.8353 131.608Q15.0434 133.7 16.7466 135.411Q18.478 137.15 20.6068 138.379L79.25 172.237Q81.3786 173.466 83.7505 174.096Q86.0836 174.715 88.5 174.715Q90.9163 174.715 93.2495 174.096Q95.6214 173.466 97.75 172.237L156.393 138.379Q158.522 137.15 160.253 135.411Q161.957 133.7 163.165 131.608Q164.373 129.515 165.003 127.185Q165.643 124.816 165.643 122.358ZM165.143 122.358L165.143 54.6423C165.143 48.2115 161.712 42.2692 156.143 39.0538L97.5 5.19615C91.9308 1.98076 85.0692 1.98076 79.5 5.19615L20.8568 39.0538C15.2875 42.2692 11.8568 48.2115 11.8568 54.6423L11.8568 122.358C11.8568 128.788 15.2875 134.731 20.8568 137.946L79.5 171.804C85.0692 175.019 91.9308 175.019 97.5 171.804L156.143 137.946C161.712 134.731 165.143 128.788 165.143 122.358Z">
</path>
<path     fill="url(#linear_fill_0_5_0)"  d="M153.952 51.5L153.952 126.5L89 164L24.0481 126.5L24.0481 51.5L89 14L153.952 51.5Z">
</path>
<path fill-rule="evenodd"  fill="url(#linear_border_0_5_0)"  d="M155.952 127.655L155.952 50.3453L89 11.6906L22.0481 50.3453L22.0481 127.655L89 166.309L155.952 127.655ZM153.952 51.5L153.952 126.5L89 164L24.0481 126.5L24.0481 51.5L89 14L153.952 51.5Z">
</path>
<path d="M89.5 26L145 58L145 71.5L142.38 72.99L142.5 122L89.5 152.5L37 122L36.47 72.9L34 71.5L34 58L89.5 26Z"   fill="#FFFFFF" >
</path>
<path d="M89.9995 25.1337L145.499 57.1337L146 57.4223L146 72.0817L145.494 72.3693L143.381 73.5709L143.5 121.998L143.501 122.578L142.999 122.867L89.9988 153.367L89.4976 153.655L88.9977 153.365L36.4977 122.865L36.0062 122.579L36.0001 122.011L35.4763 73.4862L33.5069 72.37L33 72.0827L33 57.4223L33.5005 57.1337L89.0005 25.1337L89.5 24.8457L89.9995 25.1337ZM35 70.9173L36.9631 72.03L36.9634 72.0302L36.9636 72.0303L88.5 101.283L88.5 90.5777L35 59.7309L35 70.9173ZM36.002 58L89.5 88.8457L142.998 58L89.5 27.1543L36.002 58ZM144 59.7309L90.5 90.5777L90.5 101.283L141.886 72.1207L141.886 72.1203L144 70.9183L144 59.7309ZM141.384 74.7049L90.5 103.582L90.5 150.771L141.499 121.423L141.384 74.7049ZM88.5 150.763L88.5 103.582L37.4887 74.6281L37.9938 121.421L88.5 150.763ZM52.5829 91.9199L71.8397 102.829L72.0162 102.863L72.2429 103.122C73.6034 104.678 74.4481 106.075 74.7772 107.313C75.0847 108.47 74.9594 109.476 74.4012 110.332C74.0125 110.927 73.4458 111.394 72.7013 111.733C72.3434 111.896 72.0109 112.006 71.7036 112.063L71.3455 112.13L71.0282 111.951L51.6782 101.021L51.6208 100.988L51.5681 100.949C51.2752 100.728 50.9518 100.442 50.5977 100.092C49.8791 99.3807 49.3329 98.666 48.9592 97.9479C48.3719 96.8194 48.2477 95.7572 48.5866 94.7612C48.9893 93.5775 50.0215 92.6159 51.6834 91.8764L52.1441 91.6714L52.5829 91.9199ZM52.7222 99.3134L71.6483 110.004C71.7241 109.977 71.7991 109.946 71.8734 109.912C72.2651 109.734 72.5494 109.51 72.7263 109.239C72.96 108.88 72.9993 108.41 72.8443 107.827C72.6032 106.92 71.9376 105.833 70.8473 104.565L52.0513 93.9174C51.1888 94.3655 50.6651 94.8615 50.48 95.4054C50.3247 95.8619 50.4091 96.4016 50.7333 97.0246C51.0106 97.5575 51.4344 98.1061 52.0045 98.6703C52.2733 98.9364 52.5125 99.1507 52.7222 99.3134Z" fill-rule="evenodd"  fill="#000000" >
</path>
<path d="M99.7346 69.3021L111.751 55.941L66.0984 59.5215L99.7346 69.3021Z" stroke="rgba(0, 0, 0, 1)" stroke-width="1"      fill="#FFFFFF" >
</path>
<path   fill-rule="evenodd"  fill="#000000"  d="M104.056 70.5608L120.122 52.6467L59.2434 57.59L66.0703 59.567L110.993 55.9189L112.031 55.8363L111.483 56.4389L99.9008 69.356L104.056 70.5608Z">
</path>
<path   fill-rule="evenodd"  fill="url(#linear_fill_0_41_1)"  d="M104.056 70.5608L120.122 52.6467L59.2434 57.59L66.0703 59.567L110.993 55.9189L112.031 55.8363L111.483 56.4389L99.9008 69.356L104.056 70.5608Z">
</path>
<path    stroke="rgba(0, 0, 0, 1)" stroke-width="1"    d="M104.056 70.5608L120.122 52.6467L59.2434 57.59L66.0703 59.567L110.993 55.9189L112.031 55.8363L111.483 56.4389L99.9008 69.356L104.056 70.5608Z">
</path>
<path d="M90.5026 69.9941L97.2112 62.5817L71.5802 64.4383L90.5026 69.9941Z" stroke="rgba(0, 0, 0, 1)" stroke-width="1"      fill="#FFFFFF" >
</path>
<path   fill-rule="evenodd"  fill="#000000"  d="M92.9309 70.7078L101.9 60.7692L67.7211 63.3392L71.5616 64.4623L96.7825 62.5657L97.3649 62.5228L97.0592 62.8571L90.5931 70.0234L92.9309 70.7078Z">
</path>
<path   fill-rule="evenodd"  fill="url(#linear_fill_0_60_1)"  d="M92.9309 70.7078L101.9 60.7692L67.7211 63.3392L71.5616 64.4623L96.7825 62.5657L97.3649 62.5228L97.0592 62.8571L90.5931 70.0234L92.9309 70.7078Z">
</path>
<path    stroke="rgba(0, 0, 0, 1)" stroke-width="1"    d="M92.9309 70.7078L101.9 60.7692L67.7211 63.3392L71.5616 64.4623L96.7825 62.5657L97.3649 62.5228L97.0592 62.8571L90.5931 70.0234L92.9309 70.7078Z">
</path>
<path d="M86.8623 62.4694L96.8 51.4411L58.9793 54.3373L86.8623 62.4694Z" stroke="rgba(0, 0, 0, 1)" stroke-width="1"      fill="#FFFFFF" >
</path>
<path   fill-rule="evenodd"  fill="#000000"  d="M90.4402 63.514L103.726 48.7275L53.2921 52.729L58.9514 54.3729L96.1674 51.4197L97.0268 51.3529L96.574 51.8503L86.9953 62.5123L90.4402 63.514Z">
</path>
<path   fill-rule="evenodd"  fill="url(#linear_fill_0_57_1)"  d="M90.4402 63.514L103.726 48.7275L53.2921 52.729L58.9514 54.3729L96.1674 51.4197L97.0268 51.3529L96.574 51.8503L86.9953 62.5123L90.4402 63.514Z">
</path>
<path    stroke="rgba(0, 0, 0, 1)" stroke-width="1"    d="M90.4402 63.514L103.726 48.7275L53.2921 52.729L58.9514 54.3729L96.1674 51.4197L97.0268 51.3529L96.574 51.8503L86.9953 62.5123L90.4402 63.514Z">
</path>
<defs>
<linearGradient id="linear_fill_0_5_0" x1="66.57647705078125" y1="111.90499877929688" x2="296.0165100097656" y2="-27.902496337890625" gradientUnits="userSpaceOnUse">
<stop offset="0" stop-color="#D7FFFF"  />
<stop offset="0.9688" stop-color="#4FDFFF" stop-opacity="0.01" />
<stop offset="1.0031" stop-color="#4B6666" stop-opacity="0" />
</linearGradient>
<linearGradient id="linear_border_0_5_0" x1="-18.0999755859375" y1="150.2239990234375" x2="209.4949951171875" y2="14" gradientUnits="userSpaceOnUse">
<stop offset="0" stop-color="#FF6969"  />
<stop offset="1" stop-color="#F7E1E1"  />
</linearGradient>
<linearGradient id="linear_fill_0_41_1" x1="81.97576904296875" y1="69.64767456054688" x2="97.3892822265625" y2="40.5889892578125" gradientUnits="userSpaceOnUse">
<stop offset="0" stop-color="#FAD0C4"  />
<stop offset="0.01" stop-color="#FAD0C4"  />
<stop offset="1" stop-color="#FFD1FF"  />
</linearGradient>
<linearGradient id="linear_fill_0_60_1" x1="80.5260009765625" y1="70.13117980957031" x2="89.09466552734375" y2="53.97723388671875" gradientUnits="userSpaceOnUse">
<stop offset="0" stop-color="#FAD0C4"  />
<stop offset="0.01" stop-color="#FAD0C4"  />
<stop offset="1" stop-color="#FFD1FF"  />
</linearGradient>
<linearGradient id="linear_fill_0_57_1" x1="72.1439208984375" y1="62.72831726074219" x2="84.87420654296875" y2="38.728118896484375" gradientUnits="userSpaceOnUse">
<stop offset="0" stop-color="#FAD0C4"  />
<stop offset="0.01" stop-color="#FAD0C4"  />
<stop offset="1" stop-color="#FFD1FF"  />
</linearGradient>
</defs>
</svg>
